<mxfile host="app.diagrams.net" modified="2021-05-22T08:16:09.678Z" agent="5.0 (Windows NT 10.0; Win64; x64) AppleWebKit/537.36 (KHTML, like Gecko) Chrome/90.0.4430.41 YaBrowser/21.5.0.579 Yowser/2.5 Safari/537.36" etag="DFFkZL-SGPb9IBX_kzrN" version="14.7.0" type="github">
  <diagram name="Page-1" id="13e1069c-82ec-6db2-03f1-153e76fe0fe0">
    <mxGraphModel dx="1102" dy="1505" grid="1" gridSize="10" guides="1" tooltips="1" connect="1" arrows="1" fold="1" page="1" pageScale="1" pageWidth="1100" pageHeight="850" background="none" math="0" shadow="0">
      <root>
        <mxCell id="0" />
        <mxCell id="1" parent="0" />
        <mxCell id="0xCVp9onCRK7f9qRe3Nd-65" value="вернуться на страницу собственности" style="html=1;verticalAlign=bottom;endArrow=open;dashed=1;endSize=8;fontSize=11;" edge="1" parent="1" source="0xCVp9onCRK7f9qRe3Nd-31">
          <mxGeometry relative="1" as="geometry">
            <mxPoint x="505" y="870" as="sourcePoint" />
            <mxPoint x="330" y="873" as="targetPoint" />
          </mxGeometry>
        </mxCell>
        <mxCell id="0xCVp9onCRK7f9qRe3Nd-64" value="return true" style="html=1;verticalAlign=bottom;endArrow=open;dashed=1;endSize=8;fontSize=11;" edge="1" parent="1">
          <mxGeometry relative="1" as="geometry">
            <mxPoint x="1215" y="859" as="sourcePoint" />
            <mxPoint x="539.5" y="859" as="targetPoint" />
          </mxGeometry>
        </mxCell>
        <mxCell id="0xCVp9onCRK7f9qRe3Nd-61" value="добавить дом в &lt;br&gt;лист пользователя" style="html=1;verticalAlign=bottom;endArrow=block;fontSize=11;entryX=0.188;entryY=0.249;entryDx=0;entryDy=0;entryPerimeter=0;" edge="1" parent="1">
          <mxGeometry width="80" relative="1" as="geometry">
            <mxPoint x="1219.5" y="811.9200000000001" as="sourcePoint" />
            <mxPoint x="1356.88" y="811.9200000000001" as="targetPoint" />
          </mxGeometry>
        </mxCell>
        <mxCell id="0xCVp9onCRK7f9qRe3Nd-52" value="return id товара" style="html=1;verticalAlign=bottom;endArrow=open;dashed=1;endSize=8;fontSize=11;exitX=0.12;exitY=0.746;exitDx=0;exitDy=0;exitPerimeter=0;" edge="1" parent="1" source="0xCVp9onCRK7f9qRe3Nd-49" target="7baba1c4bc27f4b0-3">
          <mxGeometry relative="1" as="geometry">
            <mxPoint x="650" y="720" as="sourcePoint" />
            <mxPoint x="570" y="720" as="targetPoint" />
          </mxGeometry>
        </mxCell>
        <mxCell id="0xCVp9onCRK7f9qRe3Nd-46" value="return false" style="html=1;verticalAlign=bottom;endArrow=open;dashed=1;endSize=8;fontSize=11;entryX=0.904;entryY=0.662;entryDx=0;entryDy=0;entryPerimeter=0;" edge="1" parent="1" target="7baba1c4bc27f4b0-22">
          <mxGeometry relative="1" as="geometry">
            <mxPoint x="1080" y="651" as="sourcePoint" />
            <mxPoint x="840" y="790" as="targetPoint" />
          </mxGeometry>
        </mxCell>
        <mxCell id="7baba1c4bc27f4b0-27" value="данные имущества" style="html=1;verticalAlign=bottom;endArrow=open;dashed=1;endSize=8;exitX=0;exitY=0.95;labelBackgroundColor=none;fontFamily=Verdana;fontSize=11;" parent="1" source="7baba1c4bc27f4b0-25" edge="1">
          <mxGeometry relative="1" as="geometry">
            <mxPoint x="660" y="521" as="targetPoint" />
          </mxGeometry>
        </mxCell>
        <mxCell id="0xCVp9onCRK7f9qRe3Nd-33" value="открыть страницу&amp;nbsp; &lt;br&gt;Id товара" style="html=1;verticalAlign=bottom;endArrow=block;fontSize=11;" edge="1" parent="1" source="0xCVp9onCRK7f9qRe3Nd-31">
          <mxGeometry width="80" relative="1" as="geometry">
            <mxPoint x="550" y="492.5" as="sourcePoint" />
            <mxPoint x="660" y="493" as="targetPoint" />
          </mxGeometry>
        </mxCell>
        <mxCell id="7baba1c4bc27f4b0-14" value="запрос на получение данных" style="html=1;verticalAlign=bottom;endArrow=block;labelBackgroundColor=none;fontFamily=Verdana;fontSize=11;edgeStyle=elbowEdgeStyle;elbow=vertical;" parent="1" source="7baba1c4bc27f4b0-10" target="7baba1c4bc27f4b0-3" edge="1">
          <mxGeometry relative="1" as="geometry">
            <mxPoint x="370" y="200" as="sourcePoint" />
            <mxPoint x="520" y="200" as="targetPoint" />
            <Array as="points">
              <mxPoint x="400" y="200" />
            </Array>
          </mxGeometry>
        </mxCell>
        <mxCell id="0xCVp9onCRK7f9qRe3Nd-25" value="список авто" style="html=1;verticalAlign=bottom;endArrow=open;dashed=1;endSize=8;fontSize=11;" edge="1" parent="1" source="7baba1c4bc27f4b0-3">
          <mxGeometry relative="1" as="geometry">
            <mxPoint x="422" y="400" as="sourcePoint" />
            <mxPoint x="330" y="400" as="targetPoint" />
          </mxGeometry>
        </mxCell>
        <mxCell id="0xCVp9onCRK7f9qRe3Nd-22" value="Запрос на получение даннных" style="html=1;verticalAlign=bottom;endArrow=block;" edge="1" parent="1">
          <mxGeometry width="80" relative="1" as="geometry">
            <mxPoint x="343" y="370" as="sourcePoint" />
            <mxPoint x="541" y="370" as="targetPoint" />
          </mxGeometry>
        </mxCell>
        <mxCell id="0xCVp9onCRK7f9qRe3Nd-21" value="обновить список&lt;br&gt;согласно фильтрам" style="edgeStyle=orthogonalEdgeStyle;html=1;align=left;spacingLeft=2;endArrow=block;rounded=0;entryX=1;entryY=0;" edge="1" target="0xCVp9onCRK7f9qRe3Nd-20" parent="1">
          <mxGeometry relative="1" as="geometry">
            <mxPoint x="330" y="353" as="sourcePoint" />
            <Array as="points">
              <mxPoint x="330" y="340" />
              <mxPoint x="370" y="340" />
              <mxPoint x="370" y="360" />
              <mxPoint x="342" y="360" />
            </Array>
          </mxGeometry>
        </mxCell>
        <mxCell id="0xCVp9onCRK7f9qRe3Nd-18" value="список авто" style="html=1;verticalAlign=bottom;endArrow=open;dashed=1;endSize=8;" edge="1" parent="1" target="7baba1c4bc27f4b0-2">
          <mxGeometry x="0.043" relative="1" as="geometry">
            <mxPoint x="540" y="240" as="sourcePoint" />
            <mxPoint x="430" y="240" as="targetPoint" />
            <mxPoint as="offset" />
          </mxGeometry>
        </mxCell>
        <mxCell id="0xCVp9onCRK7f9qRe3Nd-16" value="Результат запроса" style="html=1;verticalAlign=bottom;endArrow=open;dashed=1;endSize=8;entryX=0.48;entryY=0.21;entryDx=0;entryDy=0;entryPerimeter=0;" edge="1" parent="1">
          <mxGeometry x="0.0713" y="1" relative="1" as="geometry">
            <mxPoint x="796.21" y="382.9999999999998" as="sourcePoint" />
            <mxPoint x="539" y="382.6999999999998" as="targetPoint" />
            <Array as="points">
              <mxPoint x="626.71" y="383" />
              <mxPoint x="596.71" y="383" />
            </Array>
            <mxPoint x="1" as="offset" />
          </mxGeometry>
        </mxCell>
        <mxCell id="0xCVp9onCRK7f9qRe3Nd-13" value="Отображение страницы" style="html=1;verticalAlign=bottom;endArrow=open;dashed=1;endSize=8;" edge="1" parent="1">
          <mxGeometry x="-0.0079" relative="1" as="geometry">
            <mxPoint x="329.5000000000002" y="249.99999999999977" as="sourcePoint" />
            <mxPoint x="149.07142857142844" y="249.99999999999977" as="targetPoint" />
            <Array as="points">
              <mxPoint x="270" y="250" />
            </Array>
            <mxPoint as="offset" />
          </mxGeometry>
        </mxCell>
        <mxCell id="7baba1c4bc27f4b0-2" value="страница собственности" style="shape=umlLifeline;perimeter=lifelinePerimeter;whiteSpace=wrap;html=1;container=1;collapsible=0;recursiveResize=0;outlineConnect=0;rounded=1;shadow=0;comic=0;labelBackgroundColor=none;strokeWidth=1;fontFamily=Verdana;fontSize=12;align=center;" parent="1" vertex="1">
          <mxGeometry x="280" y="80" width="100" height="1010" as="geometry" />
        </mxCell>
        <mxCell id="7baba1c4bc27f4b0-10" value="" style="html=1;points=[];perimeter=orthogonalPerimeter;rounded=0;shadow=0;comic=0;labelBackgroundColor=none;strokeWidth=1;fontFamily=Verdana;fontSize=12;align=center;" parent="7baba1c4bc27f4b0-2" vertex="1">
          <mxGeometry x="45" y="100" width="10" height="90" as="geometry" />
        </mxCell>
        <mxCell id="7baba1c4bc27f4b0-3" value="контроллер собственности" style="shape=umlLifeline;perimeter=lifelinePerimeter;whiteSpace=wrap;html=1;container=1;collapsible=0;recursiveResize=0;outlineConnect=0;rounded=1;shadow=0;comic=0;labelBackgroundColor=none;strokeWidth=1;fontFamily=Verdana;fontSize=12;align=center;" parent="1" vertex="1">
          <mxGeometry x="490" y="76" width="100" height="970" as="geometry" />
        </mxCell>
        <mxCell id="7baba1c4bc27f4b0-13" value="" style="html=1;points=[];perimeter=orthogonalPerimeter;rounded=0;shadow=0;comic=0;labelBackgroundColor=none;strokeWidth=1;fontFamily=Verdana;fontSize=12;align=center;" parent="7baba1c4bc27f4b0-3" vertex="1">
          <mxGeometry x="45" y="104" width="10" height="226" as="geometry" />
        </mxCell>
        <mxCell id="7baba1c4bc27f4b0-5" value="бд собственности" style="shape=umlLifeline;perimeter=lifelinePerimeter;whiteSpace=wrap;html=1;container=1;collapsible=0;recursiveResize=0;outlineConnect=0;rounded=1;shadow=0;comic=0;labelBackgroundColor=none;strokeWidth=1;fontFamily=Verdana;fontSize=12;align=center;" parent="1" vertex="1">
          <mxGeometry x="750" y="80" width="100" height="980" as="geometry" />
        </mxCell>
        <mxCell id="0xCVp9onCRK7f9qRe3Nd-41" value="alt" style="shape=umlFrame;tabWidth=110;tabHeight=30;tabPosition=left;html=1;boundedLbl=1;labelInHeader=1;width=40;height=30;fontSize=11;" vertex="1" parent="7baba1c4bc27f4b0-5">
          <mxGeometry x="-130" y="540" width="470" height="120" as="geometry" />
        </mxCell>
        <mxCell id="0xCVp9onCRK7f9qRe3Nd-42" value="[проведён ли платёж]" style="text" vertex="1" parent="0xCVp9onCRK7f9qRe3Nd-41">
          <mxGeometry width="100" height="20" relative="1" as="geometry">
            <mxPoint x="40" as="offset" />
          </mxGeometry>
        </mxCell>
        <mxCell id="0xCVp9onCRK7f9qRe3Nd-43" value="" style="line;strokeWidth=1;dashed=1;labelPosition=center;verticalLabelPosition=bottom;align=left;verticalAlign=top;spacingLeft=20;spacingTop=15;" vertex="1" parent="0xCVp9onCRK7f9qRe3Nd-41">
          <mxGeometry y="51.272727272727266" width="470.00000000000006" height="21.818181818181817" as="geometry" />
        </mxCell>
        <mxCell id="7baba1c4bc27f4b0-6" value="объект бд собственности" style="shape=umlLifeline;perimeter=lifelinePerimeter;whiteSpace=wrap;html=1;container=1;collapsible=0;recursiveResize=0;outlineConnect=0;rounded=1;shadow=0;comic=0;labelBackgroundColor=none;strokeWidth=1;fontFamily=Verdana;fontSize=12;align=center;" parent="1" vertex="1">
          <mxGeometry x="895" y="80" width="100" height="1000" as="geometry" />
        </mxCell>
        <mxCell id="7baba1c4bc27f4b0-7" value="Банковский сервер платежей" style="shape=umlLifeline;perimeter=lifelinePerimeter;whiteSpace=wrap;html=1;container=1;collapsible=0;recursiveResize=0;outlineConnect=0;rounded=1;shadow=0;comic=0;labelBackgroundColor=none;strokeWidth=1;fontFamily=Verdana;fontSize=12;align=center;" parent="1" vertex="1">
          <mxGeometry x="1030" y="80" width="100" height="990" as="geometry" />
        </mxCell>
        <mxCell id="7baba1c4bc27f4b0-8" value="Пользователь" style="shape=umlLifeline;perimeter=lifelinePerimeter;whiteSpace=wrap;html=1;container=1;collapsible=0;recursiveResize=0;outlineConnect=0;rounded=1;shadow=0;comic=0;labelBackgroundColor=none;strokeWidth=1;fontFamily=Verdana;fontSize=12;align=center;" parent="1" vertex="1">
          <mxGeometry x="100" y="80" width="100" height="960" as="geometry" />
        </mxCell>
        <mxCell id="7baba1c4bc27f4b0-9" value="" style="html=1;points=[];perimeter=orthogonalPerimeter;rounded=0;shadow=0;comic=0;labelBackgroundColor=none;strokeWidth=1;fontFamily=Verdana;fontSize=12;align=center;" parent="7baba1c4bc27f4b0-8" vertex="1">
          <mxGeometry x="45" y="100" width="10" height="730" as="geometry" />
        </mxCell>
        <mxCell id="7baba1c4bc27f4b0-16" value="" style="html=1;points=[];perimeter=orthogonalPerimeter;rounded=0;shadow=0;comic=0;labelBackgroundColor=none;strokeWidth=1;fontFamily=Verdana;fontSize=12;align=center;" parent="1" vertex="1">
          <mxGeometry x="327" y="310" width="10" height="120" as="geometry" />
        </mxCell>
        <mxCell id="7baba1c4bc27f4b0-17" value="парсинг бд ( select )" style="html=1;verticalAlign=bottom;endArrow=block;labelBackgroundColor=none;fontFamily=Verdana;fontSize=11;edgeStyle=elbowEdgeStyle;elbow=vertical;" parent="1" edge="1">
          <mxGeometry relative="1" as="geometry">
            <mxPoint x="545" y="207.99999999999977" as="sourcePoint" />
            <Array as="points">
              <mxPoint x="700" y="208" />
              <mxPoint x="610" y="198" />
              <mxPoint x="630" y="188" />
              <mxPoint x="530" y="208" />
            </Array>
            <mxPoint x="799.5" y="207.99999999999977" as="targetPoint" />
          </mxGeometry>
        </mxCell>
        <mxCell id="7baba1c4bc27f4b0-23" value="&lt;span style=&quot;font-size: 11px&quot;&gt;object ID&lt;/span&gt;" style="html=1;verticalAlign=bottom;endArrow=block;labelBackgroundColor=none;fontFamily=Verdana;fontSize=12;exitX=0.5;exitY=0.393;exitDx=0;exitDy=0;exitPerimeter=0;" parent="1" source="7baba1c4bc27f4b0-2" edge="1">
          <mxGeometry relative="1" as="geometry">
            <mxPoint x="155" y="477" as="sourcePoint" />
            <mxPoint x="540" y="477" as="targetPoint" />
          </mxGeometry>
        </mxCell>
        <mxCell id="7baba1c4bc27f4b0-25" value="" style="html=1;points=[];perimeter=orthogonalPerimeter;rounded=0;shadow=0;comic=0;labelBackgroundColor=none;strokeColor=#000000;strokeWidth=1;fillColor=#FFFFFF;fontFamily=Verdana;fontSize=12;fontColor=#000000;align=center;" parent="1" vertex="1">
          <mxGeometry x="940" y="493" width="10" height="30" as="geometry" />
        </mxCell>
        <mxCell id="7baba1c4bc27f4b0-26" value="запрос получения данных" style="html=1;verticalAlign=bottom;endArrow=block;labelBackgroundColor=none;fontFamily=Verdana;fontSize=11;" parent="1" edge="1">
          <mxGeometry relative="1" as="geometry">
            <mxPoint x="666" y="498" as="sourcePoint" />
            <mxPoint x="940" y="500" as="targetPoint" />
          </mxGeometry>
        </mxCell>
        <mxCell id="7baba1c4bc27f4b0-28" value="" style="html=1;points=[];perimeter=orthogonalPerimeter;rounded=0;shadow=0;comic=0;labelBackgroundColor=none;strokeWidth=1;fontFamily=Verdana;fontSize=12;align=center;" parent="1" vertex="1">
          <mxGeometry x="1075" y="600" width="10" height="140" as="geometry" />
        </mxCell>
        <mxCell id="7baba1c4bc27f4b0-29" value="идентификатор платежа" style="html=1;verticalAlign=bottom;endArrow=block;entryX=0;entryY=0;labelBackgroundColor=none;fontFamily=Verdana;fontSize=11;edgeStyle=elbowEdgeStyle;elbow=vertical;" parent="1" target="7baba1c4bc27f4b0-28" edge="1">
          <mxGeometry relative="1" as="geometry">
            <mxPoint x="671" y="600" as="sourcePoint" />
          </mxGeometry>
        </mxCell>
        <mxCell id="7baba1c4bc27f4b0-11" value="переход на страницу" style="html=1;verticalAlign=bottom;endArrow=block;entryX=0;entryY=0;labelBackgroundColor=none;fontFamily=Verdana;fontSize=11;edgeStyle=elbowEdgeStyle;elbow=vertical;" parent="1" source="7baba1c4bc27f4b0-9" target="7baba1c4bc27f4b0-10" edge="1">
          <mxGeometry relative="1" as="geometry">
            <mxPoint x="220" y="190" as="sourcePoint" />
          </mxGeometry>
        </mxCell>
        <mxCell id="7baba1c4bc27f4b0-37" value="" style="html=1;points=[];perimeter=orthogonalPerimeter;rounded=0;shadow=0;comic=0;labelBackgroundColor=none;strokeWidth=1;fontFamily=Verdana;fontSize=12;align=center;" parent="1" vertex="1">
          <mxGeometry x="660" y="590" width="10" height="70" as="geometry" />
        </mxCell>
        <mxCell id="7baba1c4bc27f4b0-39" value="" style="html=1;verticalAlign=bottom;endArrow=block;labelBackgroundColor=none;fontFamily=Verdana;fontSize=12;elbow=vertical;edgeStyle=orthogonalEdgeStyle;curved=1;entryX=1;entryY=0.286;entryPerimeter=0;exitX=1.038;exitY=0.345;exitPerimeter=0;" parent="1" edge="1">
          <mxGeometry x="-0.2335" y="29" relative="1" as="geometry">
            <mxPoint x="666.3333333333335" y="551" as="sourcePoint" />
            <mxPoint x="671.3333333333335" y="589.3333333333334" as="targetPoint" />
            <Array as="points">
              <mxPoint x="721" y="551" />
              <mxPoint x="721" y="589" />
            </Array>
            <mxPoint as="offset" />
          </mxGeometry>
        </mxCell>
        <mxCell id="0xCVp9onCRK7f9qRe3Nd-34" value="провести оплату" style="edgeLabel;html=1;align=center;verticalAlign=middle;resizable=0;points=[];fontSize=11;" vertex="1" connectable="0" parent="7baba1c4bc27f4b0-39">
          <mxGeometry x="-0.4" y="-6" relative="1" as="geometry">
            <mxPoint x="6" y="4" as="offset" />
          </mxGeometry>
        </mxCell>
        <mxCell id="0xCVp9onCRK7f9qRe3Nd-1" value="" style="shape=umlActor;verticalLabelPosition=bottom;verticalAlign=top;html=1;outlineConnect=0;" vertex="1" parent="1">
          <mxGeometry x="135" y="5" width="30" height="60" as="geometry" />
        </mxCell>
        <mxCell id="0xCVp9onCRK7f9qRe3Nd-3" value="property chose" style="shape=umlBoundary;whiteSpace=wrap;html=1;" vertex="1" parent="1">
          <mxGeometry x="280" y="-15" width="100" height="80" as="geometry" />
        </mxCell>
        <mxCell id="0xCVp9onCRK7f9qRe3Nd-4" value="property page" style="shape=umlBoundary;whiteSpace=wrap;html=1;" vertex="1" parent="1">
          <mxGeometry x="615" y="-15" width="100" height="80" as="geometry" />
        </mxCell>
        <mxCell id="0xCVp9onCRK7f9qRe3Nd-5" value="property control" style="ellipse;shape=umlControl;whiteSpace=wrap;html=1;" vertex="1" parent="1">
          <mxGeometry x="505" y="-15" width="70" height="80" as="geometry" />
        </mxCell>
        <mxCell id="0xCVp9onCRK7f9qRe3Nd-7" value="property" style="ellipse;shape=umlEntity;whiteSpace=wrap;html=1;" vertex="1" parent="1">
          <mxGeometry x="760" y="-15" width="80" height="80" as="geometry" />
        </mxCell>
        <mxCell id="0xCVp9onCRK7f9qRe3Nd-8" value="houses" style="ellipse;shape=umlEntity;whiteSpace=wrap;html=1;" vertex="1" parent="1">
          <mxGeometry x="905" y="-15" width="80" height="80" as="geometry" />
        </mxCell>
        <mxCell id="0xCVp9onCRK7f9qRe3Nd-17" value="" style="html=1;points=[];perimeter=orthogonalPerimeter;" vertex="1" parent="1">
          <mxGeometry x="795" y="190" width="10" height="200" as="geometry" />
        </mxCell>
        <mxCell id="0xCVp9onCRK7f9qRe3Nd-19" value="сортировка списка" style="html=1;verticalAlign=bottom;endArrow=block;" edge="1" parent="1" source="7baba1c4bc27f4b0-8">
          <mxGeometry x="0.0028" width="80" relative="1" as="geometry">
            <mxPoint x="190" y="330" as="sourcePoint" />
            <mxPoint x="330" y="330" as="targetPoint" />
            <mxPoint as="offset" />
          </mxGeometry>
        </mxCell>
        <mxCell id="0xCVp9onCRK7f9qRe3Nd-20" value="" style="html=1;points=[];perimeter=orthogonalPerimeter;" vertex="1" parent="1">
          <mxGeometry x="332" y="359" width="10" height="21" as="geometry" />
        </mxCell>
        <mxCell id="0xCVp9onCRK7f9qRe3Nd-26" value="Обновление данных" style="html=1;verticalAlign=bottom;endArrow=open;dashed=1;endSize=8;fontSize=11;" edge="1" parent="1">
          <mxGeometry relative="1" as="geometry">
            <mxPoint x="327" y="424" as="sourcePoint" />
            <mxPoint x="155" y="424" as="targetPoint" />
          </mxGeometry>
        </mxCell>
        <mxCell id="0xCVp9onCRK7f9qRe3Nd-27" value="" style="html=1;points=[];perimeter=orthogonalPerimeter;fontSize=11;" vertex="1" parent="1">
          <mxGeometry x="325" y="460" width="10" height="430" as="geometry" />
        </mxCell>
        <mxCell id="0xCVp9onCRK7f9qRe3Nd-28" value="выбран определённый объект" style="html=1;verticalAlign=bottom;endArrow=block;fontSize=11;" edge="1" parent="1">
          <mxGeometry width="80" relative="1" as="geometry">
            <mxPoint x="155" y="466" as="sourcePoint" />
            <mxPoint x="325" y="466" as="targetPoint" />
          </mxGeometry>
        </mxCell>
        <mxCell id="0xCVp9onCRK7f9qRe3Nd-29" value="отобразить успех" style="html=1;verticalAlign=bottom;endArrow=open;dashed=1;endSize=8;fontSize=11;entryX=0.996;entryY=0.631;entryDx=0;entryDy=0;entryPerimeter=0;" edge="1" parent="1">
          <mxGeometry relative="1" as="geometry">
            <mxPoint x="325" y="884.9999999999999" as="sourcePoint" />
            <mxPoint x="154.96000000000004" y="884.9999999999999" as="targetPoint" />
          </mxGeometry>
        </mxCell>
        <mxCell id="0xCVp9onCRK7f9qRe3Nd-31" value="" style="html=1;points=[];perimeter=orthogonalPerimeter;fontSize=11;" vertex="1" parent="1">
          <mxGeometry x="535" y="470" width="10" height="410" as="geometry" />
        </mxCell>
        <mxCell id="0xCVp9onCRK7f9qRe3Nd-38" value="" style="shape=providedRequiredInterface;html=1;verticalLabelPosition=bottom;fontSize=11;" vertex="1" parent="1">
          <mxGeometry x="1052.5" y="7.5" width="55" height="55" as="geometry" />
        </mxCell>
        <mxCell id="7baba1c4bc27f4b0-4" value="страница собственности" style="shape=umlLifeline;perimeter=lifelinePerimeter;whiteSpace=wrap;html=1;container=1;collapsible=0;recursiveResize=0;outlineConnect=0;rounded=1;shadow=0;comic=0;labelBackgroundColor=none;strokeWidth=1;fontFamily=Verdana;fontSize=12;align=center;" parent="1" vertex="1">
          <mxGeometry x="610" y="80" width="100" height="1010" as="geometry" />
        </mxCell>
        <mxCell id="7baba1c4bc27f4b0-22" value="" style="html=1;points=[];perimeter=orthogonalPerimeter;rounded=0;shadow=0;comic=0;labelBackgroundColor=none;strokeWidth=1;fontFamily=Verdana;fontSize=12;align=center;" parent="1" vertex="1">
          <mxGeometry x="656" y="478" width="10" height="262" as="geometry" />
        </mxCell>
        <mxCell id="0xCVp9onCRK7f9qRe3Nd-47" value="return true" style="html=1;verticalAlign=bottom;endArrow=open;dashed=1;endSize=8;fontSize=11;entryX=1.032;entryY=0.882;entryDx=0;entryDy=0;entryPerimeter=0;" edge="1" parent="1" source="7baba1c4bc27f4b0-28" target="7baba1c4bc27f4b0-22">
          <mxGeometry relative="1" as="geometry">
            <mxPoint x="960" y="710" as="sourcePoint" />
            <mxPoint x="905" y="710" as="targetPoint" />
          </mxGeometry>
        </mxCell>
        <mxCell id="0xCVp9onCRK7f9qRe3Nd-49" value="" style="html=1;points=[];perimeter=orthogonalPerimeter;fontSize=11;" vertex="1" parent="1">
          <mxGeometry x="660" y="690" width="10" height="40" as="geometry" />
        </mxCell>
        <mxCell id="0xCVp9onCRK7f9qRe3Nd-50" value="контроллер пользователя" style="shape=umlLifeline;perimeter=lifelinePerimeter;whiteSpace=wrap;html=1;container=1;collapsible=0;recursiveResize=0;outlineConnect=0;fontSize=11;" vertex="1" parent="1">
          <mxGeometry x="1170" y="80" width="100" height="990" as="geometry" />
        </mxCell>
        <mxCell id="0xCVp9onCRK7f9qRe3Nd-51" value="пользователи" style="shape=umlLifeline;perimeter=lifelinePerimeter;whiteSpace=wrap;html=1;container=1;collapsible=0;recursiveResize=0;outlineConnect=0;fontSize=11;" vertex="1" parent="1">
          <mxGeometry x="1310" y="80" width="100" height="990" as="geometry" />
        </mxCell>
        <mxCell id="0xCVp9onCRK7f9qRe3Nd-53" value="loop 1:20" style="shape=umlFrame;whiteSpace=wrap;html=1;fontSize=11;" vertex="1" parent="1">
          <mxGeometry x="600" y="540" width="510" height="230" as="geometry" />
        </mxCell>
        <mxCell id="0xCVp9onCRK7f9qRe3Nd-54" value="" style="html=1;points=[];perimeter=orthogonalPerimeter;fontSize=11;" vertex="1" parent="1">
          <mxGeometry x="540" y="800" width="10" height="30" as="geometry" />
        </mxCell>
        <mxCell id="0xCVp9onCRK7f9qRe3Nd-55" value="закрепить собственность&lt;br&gt;за пользователем" style="edgeStyle=orthogonalEdgeStyle;html=1;align=left;spacingLeft=2;endArrow=block;rounded=0;entryX=1;entryY=0;fontSize=11;" edge="1" target="0xCVp9onCRK7f9qRe3Nd-54" parent="1">
          <mxGeometry relative="1" as="geometry">
            <mxPoint x="545" y="780" as="sourcePoint" />
            <Array as="points">
              <mxPoint x="575" y="780" />
            </Array>
          </mxGeometry>
        </mxCell>
        <mxCell id="0xCVp9onCRK7f9qRe3Nd-56" value="передать id пользователя и товара" style="html=1;verticalAlign=bottom;endArrow=block;fontSize=11;exitX=0.92;exitY=0.336;exitDx=0;exitDy=0;exitPerimeter=0;" edge="1" parent="1" source="0xCVp9onCRK7f9qRe3Nd-54" target="0xCVp9onCRK7f9qRe3Nd-58">
          <mxGeometry width="80" relative="1" as="geometry">
            <mxPoint x="575" y="810" as="sourcePoint" />
            <mxPoint x="655" y="810" as="targetPoint" />
          </mxGeometry>
        </mxCell>
        <mxCell id="0xCVp9onCRK7f9qRe3Nd-57" value="user&lt;br&gt;controller" style="ellipse;shape=umlControl;whiteSpace=wrap;html=1;fontSize=11;" vertex="1" parent="1">
          <mxGeometry x="1185" y="-15" width="70" height="80" as="geometry" />
        </mxCell>
        <mxCell id="0xCVp9onCRK7f9qRe3Nd-58" value="" style="html=1;points=[];perimeter=orthogonalPerimeter;fontSize=11;" vertex="1" parent="1">
          <mxGeometry x="1215" y="790" width="10" height="80" as="geometry" />
        </mxCell>
        <mxCell id="0xCVp9onCRK7f9qRe3Nd-59" value="" style="html=1;points=[];perimeter=orthogonalPerimeter;fontSize=11;" vertex="1" parent="1">
          <mxGeometry x="1355" y="807" width="10" height="53" as="geometry" />
        </mxCell>
        <mxCell id="0xCVp9onCRK7f9qRe3Nd-60" value="users" style="ellipse;shape=umlEntity;whiteSpace=wrap;html=1;fontSize=11;" vertex="1" parent="1">
          <mxGeometry x="1320" y="-15" width="80" height="80" as="geometry" />
        </mxCell>
        <mxCell id="0xCVp9onCRK7f9qRe3Nd-62" value="return true" style="html=1;verticalAlign=bottom;endArrow=open;dashed=1;endSize=8;fontSize=11;exitX=0.124;exitY=0.819;exitDx=0;exitDy=0;exitPerimeter=0;" edge="1" parent="1" source="0xCVp9onCRK7f9qRe3Nd-59" target="0xCVp9onCRK7f9qRe3Nd-58">
          <mxGeometry relative="1" as="geometry">
            <mxPoint x="1330" y="849" as="sourcePoint" />
            <mxPoint x="1250" y="849" as="targetPoint" />
          </mxGeometry>
        </mxCell>
        <mxCell id="0xCVp9onCRK7f9qRe3Nd-63" value="return" style="html=1;verticalAlign=bottom;endArrow=open;dashed=1;endSize=8;fontSize=11;" edge="1" parent="1" source="0xCVp9onCRK7f9qRe3Nd-50" target="7baba1c4bc27f4b0-3">
          <mxGeometry relative="1" as="geometry">
            <mxPoint x="1155" y="860" as="sourcePoint" />
            <mxPoint x="1075" y="860" as="targetPoint" />
          </mxGeometry>
        </mxCell>
      </root>
    </mxGraphModel>
  </diagram>
</mxfile>
